<svg width="64" height="64" viewBox="0 0 64 64" fill="none" xmlns="http://www.w3.org/2000/svg">
<path d="M32 0C14.328 0 0 14.328 0 32C0 38.0032 1.68624 43.6002 4.5625 48.401L0.286458 64L16.2188 59.8177C20.8783 62.4668 26.2573 64 32 64C49.672 64 64 49.672 64 32C64 14.328 49.672 0 32 0ZM21.0469 17.0729C21.5669 17.0729 22.1012 17.0698 22.5625 17.0938C23.1332 17.1071 23.7543 17.1489 24.349 18.4635C25.0556 20.0262 26.5943 23.9464 26.7917 24.3438C26.989 24.7411 27.1288 25.2092 26.8542 25.7292C26.5928 26.2625 26.4569 26.5853 26.0729 27.0573C25.6756 27.516 25.2402 28.0856 24.8802 28.4323C24.4829 28.8296 24.0726 29.2653 24.5313 30.0573C24.9899 30.8493 26.5828 33.4457 28.9375 35.5417C31.9642 38.2457 34.5178 39.0766 35.3125 39.474C36.1072 39.8713 36.5674 39.8094 37.026 39.276C37.498 38.756 39.0083 36.9718 39.5417 36.1771C40.0617 35.3824 40.5925 35.5199 41.3125 35.7813C42.0432 36.0426 45.9397 37.962 46.7344 38.3594C47.529 38.7567 48.05 38.9534 48.25 39.276C48.4553 39.6094 48.4555 41.1962 47.7969 43.0469C47.1382 44.8949 43.9038 46.682 42.4531 46.8073C40.9891 46.9433 39.6228 47.4653 32.9375 44.8333C24.8735 41.6573 19.788 33.3979 19.3906 32.8646C18.9933 32.3446 16.1615 28.5704 16.1615 24.6771C16.1615 20.7704 18.2098 18.8572 18.9271 18.0625C19.6578 17.2678 20.5135 17.0729 21.0469 17.0729Z" fill="#78A55A"/>
</svg>
