<svg width="64" height="64" viewBox="0 0 64 64" fill="none" xmlns="http://www.w3.org/2000/svg">
<path d="M32 0C14.3557 0 0 14.3557 0 32C0 49.6443 14.3557 64 32 64C49.6443 64 64 49.6443 64 32C64 14.3557 49.6443 0 32 0ZM23.7933 9.84615H40.2019C47.8942 9.84615 54.1538 16.1034 54.1538 23.7933V40.2019C54.1538 47.8942 47.8966 54.1538 40.2067 54.1538H23.7981C16.1058 54.1538 9.84615 47.8966 9.84615 40.2067V23.7981C9.84615 16.1058 16.1034 9.84615 23.7933 9.84615ZM23.7933 14.7692C18.8185 14.7692 14.7692 18.8208 14.7692 23.7981V40.2067C14.7692 45.1815 18.8208 49.2308 23.7981 49.2308H40.2067C45.1815 49.2308 49.2308 45.1792 49.2308 40.2019V23.7933C49.2308 18.8185 45.1792 14.7692 40.2019 14.7692H23.7933ZM43.4904 18.8702C44.3962 18.8702 45.1298 19.6038 45.1298 20.5096C45.1298 21.4155 44.3962 22.1538 43.4904 22.1538C42.5845 22.1538 41.8462 21.4155 41.8462 20.5096C41.8462 19.6038 42.5845 18.8702 43.4904 18.8702ZM32 19.6923C38.7865 19.6923 44.3077 25.2135 44.3077 32C44.3077 38.7865 38.7865 44.3077 32 44.3077C25.2135 44.3077 19.6923 38.7865 19.6923 32C19.6923 25.2135 25.2135 19.6923 32 19.6923ZM32 24.6154C30.0415 24.6154 28.1632 25.3934 26.7783 26.7783C25.3934 28.1632 24.6154 30.0415 24.6154 32C24.6154 33.9585 25.3934 35.8368 26.7783 37.2217C28.1632 38.6066 30.0415 39.3846 32 39.3846C33.9585 39.3846 35.8368 38.6066 37.2217 37.2217C38.6066 35.8368 39.3846 33.9585 39.3846 32C39.3846 30.0415 38.6066 28.1632 37.2217 26.7783C35.8368 25.3934 33.9585 24.6154 32 24.6154Z" fill="#BB271A"/>
</svg>
