<svg width="256" height="231" viewBox="0 0 256 231" fill="none" xmlns="http://www.w3.org/2000/svg">
<mask id="mask0_115_14509" style="mask-type:luminance" maskUnits="userSpaceOnUse" x="76" y="73" width="87" height="57">
<path d="M76.9467 73.8671H162.451V129.307H76.9467V73.8671Z" fill="white"/>
</mask>
<g mask="url(#mask0_115_14509)">
<path d="M138.173 125.537C134.011 125.537 130.067 124.67 126.552 123.13C127.4 122.522 128.213 121.874 128.987 121.191C134.653 116.176 138.173 109.193 138.173 101.484V99.7007H114.56C114.504 100.29 114.477 100.882 114.477 101.484C114.477 102.083 114.504 102.677 114.56 103.264H134.149C133.629 109.672 130.312 115.389 125.299 119.425C124.528 120.048 123.717 120.63 122.867 121.167C116.005 116.812 111.515 109.612 111.515 101.484C111.515 94.3564 114.968 87.9438 120.443 83.5331C119.627 83.0543 118.773 82.6212 117.896 82.2362C117.523 82.0725 117.144 81.9161 116.755 81.7717C111.085 86.784 107.565 93.7693 107.565 101.484C107.565 109.67 111.536 117.038 117.829 122.1C118.163 122.37 118.507 122.632 118.853 122.89C118.963 122.969 119.075 123.051 119.184 123.128C119.213 123.15 119.243 123.169 119.272 123.188C119.405 123.284 119.539 123.378 119.677 123.472C119.773 123.539 119.872 123.604 119.971 123.672C120.024 123.705 120.075 123.742 120.125 123.775C120.256 123.862 120.387 123.948 120.52 124.033C120.656 124.119 120.789 124.204 120.925 124.288C120.968 124.314 121.011 124.338 121.053 124.365C121.181 124.444 121.312 124.524 121.44 124.601C121.541 124.658 121.645 124.716 121.747 124.774C121.835 124.827 121.925 124.877 122.016 124.93C122.299 125.089 122.581 125.243 122.869 125.395C127.373 127.75 132.603 129.1 138.173 129.1C147.32 129.1 155.917 125.45 161.76 119.083L158.717 116.812C153.627 122.356 146.141 125.537 138.173 125.537ZM116.088 124.276C117.248 125.193 118.477 126.04 119.771 126.807C116.029 128.282 111.901 129.1 107.565 129.1C90.688 129.1 76.96 116.713 76.96 101.484C76.96 86.2546 90.688 73.8648 107.565 73.8648C111.832 73.8648 115.979 74.6589 119.781 76.1532C120.843 76.5718 121.877 77.0411 122.88 77.5656C123.877 77.0435 124.912 76.5718 125.976 76.1532C129.715 74.6805 133.84 73.8648 138.173 73.8648C147.803 73.8648 156.677 77.8327 162.523 84.7507L159.384 86.9115C154.291 80.8862 146.56 77.4285 138.173 77.4285C135.197 77.4285 132.339 77.8712 129.667 78.6845C128.6 79.0094 127.565 79.392 126.565 79.8299C127.411 80.4339 128.221 81.0812 129 81.7693C129.715 82.4022 130.397 83.0687 131.045 83.7689L128.019 86.0549C127.179 85.1477 126.275 84.3079 125.312 83.5331C124.536 82.9075 123.723 82.3252 122.877 81.7934C121.707 81.0475 120.472 80.393 119.189 79.8323C118.187 79.392 117.152 79.0118 116.091 78.6893C113.376 77.8616 110.501 77.4285 107.565 77.4285C92.8666 77.4285 80.9093 88.2181 80.9093 101.484C80.9093 114.747 92.8666 125.537 107.565 125.537C110.547 125.537 113.411 125.094 116.088 124.276Z" fill="#FDBD00"/>
</g>
<mask id="mask1_115_14509" style="mask-type:luminance" maskUnits="userSpaceOnUse" x="144" y="85" width="34" height="33">
<path d="M144.725 85.008H177.493V117.656H144.725V85.008Z" fill="white"/>
</mask>
<g mask="url(#mask1_115_14509)">
<mask id="mask2_115_14509" style="mask-type:luminance" maskUnits="userSpaceOnUse" x="139" y="84" width="40" height="35">
<path d="M145.717 84.9695L178.829 91.0549L172.597 118.669L139.485 112.584L145.717 84.9695Z" fill="white"/>
</mask>
<g mask="url(#mask2_115_14509)">
<mask id="mask3_115_14509" style="mask-type:luminance" maskUnits="userSpaceOnUse" x="139" y="84" width="40" height="35">
<path d="M145.717 84.9695L178.829 91.0549L172.597 118.669L139.485 112.584L145.717 84.9695Z" fill="white"/>
</mask>
<g mask="url(#mask3_115_14509)">
<path d="M162.805 110.637C163.363 109.638 163.024 108.772 162.765 107.918C162.616 107.422 162.309 106.965 162.176 106.467C162.019 105.88 161.88 105.264 161.909 104.667C161.933 104.212 162.144 103.712 162.435 103.336C163.045 102.542 164.019 102.619 164.451 103.507C164.728 104.082 164.813 104.742 164.933 105.37C164.997 105.711 164.952 106.07 164.955 106.445C165.648 105.962 165.744 105.832 165.872 105.168C166.048 104.26 165.939 103.375 165.635 102.499C165.301 101.539 165.024 100.552 165.229 99.5513C165.349 98.969 165.584 98.3554 165.96 97.8838C166.531 97.1716 167.381 97.1908 168.072 97.8116C169.032 98.6779 169.187 99.7487 168.859 100.863C168.587 101.794 168.179 102.691 167.768 103.767C168.096 103.603 168.323 103.541 168.467 103.409C169.245 102.699 170.003 101.974 170.768 101.253C171.261 100.788 171.72 100.288 172.256 99.8666C173.045 99.2457 173.965 98.9305 175.013 98.9209C175.909 98.9041 176.563 99.2578 176.76 99.8064C176.957 100.353 176.659 100.954 175.837 101.382C175.256 101.686 174.613 101.905 173.976 102.107C173.579 102.234 173.136 102.335 172.72 102.321C170.8 102.254 169.413 103.18 168.099 104.26C167.915 104.412 167.733 104.568 167.557 104.73C167.512 104.77 167.488 104.831 167.384 104.999C167.723 104.891 167.968 104.826 168.208 104.737C169.445 104.275 170.728 103.993 172.067 104.065C172.621 104.097 173.216 104.205 173.704 104.429C174.712 104.896 174.709 105.887 173.747 106.424C172.933 106.876 172.043 106.847 171.149 106.695C170.131 106.525 169.115 106.344 168.104 106.14C166.741 105.865 165.787 106.277 165.061 107.372C164.4 108.368 164.051 109.458 163.485 110.473L163.659 110.589C163.88 110.406 164.099 110.223 164.323 110.043C165.477 109.116 166.813 108.536 168.349 108.375C168.779 108.325 169.2 108.346 169.619 108.438C170.384 108.618 170.595 109.2 170.139 109.783C169.691 110.36 169.045 110.719 168.309 110.906C167.448 111.128 166.56 111.253 165.699 111.448C164.912 111.623 164.136 111.842 163.291 112.059C163.712 113.729 164.173 115.279 164.128 117.052C163.837 116.896 163.667 116.852 163.576 116.751C162.363 115.433 160.715 114.747 158.989 114.186C157.275 113.63 155.523 113.166 153.837 112.55C153.029 112.256 152.291 111.756 151.621 111.238C151.24 110.945 150.968 110.468 150.805 110.026C150.483 109.152 150.912 108.428 151.848 108.067C152.563 107.795 153.304 107.778 154.056 107.911C155.451 108.156 156.699 108.693 157.835 109.451C160.072 110.94 161.965 112.709 163.317 114.975C163.288 114.744 163.275 114.501 163.224 114.27C162.747 112.107 161.883 110.062 160.837 108.077C160.579 107.583 160.171 107.263 159.669 106.987C158.229 106.197 156.624 105.911 155 105.656C153.699 105.456 152.4 105.245 151.101 105.026C149.811 104.809 148.656 104.287 147.608 103.611C147.085 103.267 146.659 102.843 146.333 102.338C145.667 101.289 146.187 100.256 147.475 99.9147C148.464 99.6524 149.456 99.7126 150.429 99.9893C152.363 100.54 154.077 101.455 155.653 102.59C156.456 103.168 157.221 103.789 158.101 104.323C157.947 104.114 157.819 103.88 157.632 103.697C156.259 102.343 154.861 101.007 153.499 99.6452C152.608 98.7621 151.608 97.9969 150.499 97.3424C147.96 95.8241 146.371 93.6223 145.413 91.0549C144.928 89.7483 144.944 88.3887 145.248 87.0412C145.317 86.7573 145.435 86.4902 145.603 86.2424C146.168 85.4098 147.147 85.239 147.965 85.8935C148.432 86.2712 148.896 86.7381 149.125 87.253C149.693 88.5018 150.171 89.7796 150.555 91.0862C150.893 92.2676 151.037 93.4948 151.267 94.7003C151.589 96.4016 152.384 97.8742 153.755 99.1038C155.171 100.369 156.539 101.671 158.107 103.125C157.976 102.72 157.901 102.504 157.835 102.287C157.317 100.579 156.739 98.8848 156.317 97.1571C156.115 96.3246 156.181 95.427 156.189 94.5632C156.195 93.8245 156.565 93.1892 157.085 92.6358C157.744 91.9332 158.595 91.8152 159.333 92.4433C159.848 92.8957 160.256 93.4154 160.555 94.0025C161.299 95.4318 161.227 96.9526 160.947 98.4637C160.696 99.7968 160.368 101.118 160.109 102.448C160.016 102.922 160.019 103.411 159.979 103.892C159.883 104.92 160.139 105.87 160.741 106.744C161.387 107.704 161.843 108.765 162.376 109.785C162.507 110.038 162.632 110.293 162.805 110.637Z" fill="#FEFAE0"/>
</g>
</g>
</g>
<mask id="mask4_115_14509" style="mask-type:luminance" maskUnits="userSpaceOnUse" x="154" y="110" width="9" height="6">
<path d="M154.283 110.264H162.475V115.192H154.283V110.264Z" fill="white"/>
</mask>
<g mask="url(#mask4_115_14509)">
<mask id="mask5_115_14509" style="mask-type:luminance" maskUnits="userSpaceOnUse" x="139" y="84" width="40" height="35">
<path d="M145.717 84.9695L178.829 91.0549L172.597 118.669L139.485 112.584L145.717 84.9695Z" fill="white"/>
</mask>
<g mask="url(#mask5_115_14509)">
<mask id="mask6_115_14509" style="mask-type:luminance" maskUnits="userSpaceOnUse" x="139" y="84" width="40" height="35">
<path d="M145.717 84.9695L178.829 91.0549L172.597 118.669L139.485 112.584L145.717 84.9695Z" fill="white"/>
</mask>
<g mask="url(#mask6_115_14509)">
<path d="M154.499 110.394C157.816 111.024 160.443 112.598 162.285 115.187C162.069 114.997 161.848 114.814 161.643 114.617C159.912 112.942 157.928 111.614 155.483 110.906C155.213 110.817 154.955 110.712 154.704 110.584C154.624 110.546 154.568 110.459 154.499 110.394Z" fill="#FDBD00"/>
</g>
</g>
</g>
<mask id="mask7_115_14509" style="mask-type:luminance" maskUnits="userSpaceOnUse" x="146" y="89" width="6" height="9">
<path d="M146.773 89.32H151.552V97.944H146.773V89.32Z" fill="white"/>
</mask>
<g mask="url(#mask7_115_14509)">
<mask id="mask8_115_14509" style="mask-type:luminance" maskUnits="userSpaceOnUse" x="139" y="84" width="40" height="35">
<path d="M145.717 84.9695L178.829 91.0549L172.597 118.669L139.485 112.584L145.717 84.9695Z" fill="white"/>
</mask>
<g mask="url(#mask8_115_14509)">
<mask id="mask9_115_14509" style="mask-type:luminance" maskUnits="userSpaceOnUse" x="139" y="84" width="40" height="35">
<path d="M145.717 84.9695L178.829 91.0549L172.597 118.669L139.485 112.584L145.717 84.9695Z" fill="white"/>
</mask>
<g mask="url(#mask9_115_14509)">
<path d="M151.323 97.3569C149.48 96.0358 147.035 91.4182 147.24 89.5943C147.816 90.949 148.307 92.3519 149 93.6657C149.677 94.9602 150.563 96.1634 151.323 97.3569Z" fill="#FDBD00"/>
</g>
</g>
</g>
<mask id="mask10_115_14509" style="mask-type:luminance" maskUnits="userSpaceOnUse" x="158" y="95" width="2" height="10">
<path d="M158.379 95.48H159.744V104.104H158.379V95.48Z" fill="white"/>
</mask>
<g mask="url(#mask10_115_14509)">
<mask id="mask11_115_14509" style="mask-type:luminance" maskUnits="userSpaceOnUse" x="139" y="84" width="40" height="35">
<path d="M145.717 84.9695L178.829 91.0549L172.597 118.669L139.485 112.584L145.717 84.9695Z" fill="white"/>
</mask>
<g mask="url(#mask11_115_14509)">
<mask id="mask12_115_14509" style="mask-type:luminance" maskUnits="userSpaceOnUse" x="139" y="84" width="40" height="35">
<path d="M145.717 84.9695L178.829 91.0549L172.597 118.669L139.485 112.584L145.717 84.9695Z" fill="white"/>
</mask>
<g mask="url(#mask12_115_14509)">
<path d="M158.984 103.933C158.037 101.226 158.837 98.4637 158.645 95.7326L158.899 95.7206C158.947 96.3823 159.029 97.0464 159.029 97.7105C159.032 99.188 158.968 100.668 158.981 102.148C158.984 102.74 159.12 103.332 159.195 103.923L158.984 103.933Z" fill="#FDBD00"/>
</g>
</g>
</g>
<mask id="mask13_115_14509" style="mask-type:luminance" maskUnits="userSpaceOnUse" x="149" y="102" width="11" height="4">
<path d="M149.504 102.256H159.061V105.952H149.504V102.256Z" fill="white"/>
</mask>
<g mask="url(#mask13_115_14509)">
<mask id="mask14_115_14509" style="mask-type:luminance" maskUnits="userSpaceOnUse" x="139" y="84" width="40" height="35">
<path d="M145.717 84.9695L178.829 91.0549L172.597 118.669L139.485 112.584L145.717 84.9695Z" fill="white"/>
</mask>
<g mask="url(#mask14_115_14509)">
<mask id="mask15_115_14509" style="mask-type:luminance" maskUnits="userSpaceOnUse" x="139" y="84" width="40" height="35">
<path d="M145.717 84.9695L178.829 91.0549L172.597 118.669L139.485 112.584L145.717 84.9695Z" fill="white"/>
</mask>
<g mask="url(#mask15_115_14509)">
<path d="M149.939 102.417C153.16 102.718 155.877 104.123 158.544 105.637C155.744 104.417 152.968 103.137 149.939 102.417Z" fill="#FDBD00"/>
</g>
</g>
</g>
<mask id="mask16_115_14509" style="mask-type:luminance" maskUnits="userSpaceOnUse" x="165" y="100" width="3" height="6">
<path d="M165.888 100.408H167.253V105.336H165.888V100.408Z" fill="white"/>
</mask>
<g mask="url(#mask16_115_14509)">
<mask id="mask17_115_14509" style="mask-type:luminance" maskUnits="userSpaceOnUse" x="139" y="84" width="40" height="35">
<path d="M145.717 84.9695L178.829 91.0549L172.597 118.669L139.485 112.584L145.717 84.9695Z" fill="white"/>
</mask>
<g mask="url(#mask17_115_14509)">
<mask id="mask18_115_14509" style="mask-type:luminance" maskUnits="userSpaceOnUse" x="139" y="84" width="40" height="35">
<path d="M145.717 84.9695L178.829 91.0549L172.597 118.669L139.485 112.584L145.717 84.9695Z" fill="white"/>
</mask>
<g mask="url(#mask18_115_14509)">
<path d="M166.443 104.773C166.669 103.498 166.899 102.222 167.125 100.947C167.344 102.292 167.171 103.577 166.443 104.773Z" fill="#FDBD00"/>
</g>
</g>
</g>
<mask id="mask19_115_14509" style="mask-type:luminance" maskUnits="userSpaceOnUse" x="163" y="104" width="2" height="6">
<path d="M163.157 104.72H164.523V109.032H163.157V104.72Z" fill="white"/>
</mask>
<g mask="url(#mask19_115_14509)">
<mask id="mask20_115_14509" style="mask-type:luminance" maskUnits="userSpaceOnUse" x="139" y="84" width="40" height="35">
<path d="M145.717 84.9695L178.829 91.0549L172.597 118.669L139.485 112.584L145.717 84.9695Z" fill="white"/>
</mask>
<g mask="url(#mask20_115_14509)">
<mask id="mask21_115_14509" style="mask-type:luminance" maskUnits="userSpaceOnUse" x="139" y="84" width="40" height="35">
<path d="M145.717 84.9695L178.829 91.0549L172.597 118.669L139.485 112.584L145.717 84.9695Z" fill="white"/>
</mask>
<g mask="url(#mask21_115_14509)">
<path d="M163.613 108.77C163.587 107.571 163.56 106.373 163.531 105.177C164.107 106.368 164.003 107.569 163.613 108.77Z" fill="#FDBD00"/>
</g>
</g>
</g>
<mask id="mask22_115_14509" style="mask-type:luminance" maskUnits="userSpaceOnUse" x="167" y="104" width="6" height="2">
<path d="M167.253 104.72H172.032V105.952H167.253V104.72Z" fill="white"/>
</mask>
<g mask="url(#mask22_115_14509)">
<mask id="mask23_115_14509" style="mask-type:luminance" maskUnits="userSpaceOnUse" x="139" y="84" width="40" height="35">
<path d="M145.717 84.9695L178.829 91.0549L172.597 118.669L139.485 112.584L145.717 84.9695Z" fill="white"/>
</mask>
<g mask="url(#mask23_115_14509)">
<mask id="mask24_115_14509" style="mask-type:luminance" maskUnits="userSpaceOnUse" x="139" y="84" width="40" height="35">
<path d="M145.717 84.9695L178.829 91.0549L172.597 118.669L139.485 112.584L145.717 84.9695Z" fill="white"/>
</mask>
<g mask="url(#mask24_115_14509)">
<path d="M171.92 105.451L167.611 105.581C168.563 105.086 169.984 105.016 171.92 105.451Z" fill="#FDBD00"/>
</g>
</g>
</g>
<mask id="mask25_115_14509" style="mask-type:luminance" maskUnits="userSpaceOnUse" x="163" y="109" width="5" height="3">
<path d="M163.84 109.648H167.936V111.496H163.84V109.648Z" fill="white"/>
</mask>
<g mask="url(#mask25_115_14509)">
<mask id="mask26_115_14509" style="mask-type:luminance" maskUnits="userSpaceOnUse" x="139" y="84" width="40" height="35">
<path d="M145.717 84.9695L178.829 91.0549L172.597 118.669L139.485 112.584L145.717 84.9695Z" fill="white"/>
</mask>
<g mask="url(#mask26_115_14509)">
<mask id="mask27_115_14509" style="mask-type:luminance" maskUnits="userSpaceOnUse" x="139" y="84" width="40" height="35">
<path d="M145.717 84.9695L178.829 91.0549L172.597 118.669L139.485 112.584L145.717 84.9695Z" fill="white"/>
</mask>
<g mask="url(#mask27_115_14509)">
<path d="M164.243 111.159C165.088 110.182 166.307 109.975 167.6 109.927C167.04 110.091 166.469 110.23 165.928 110.43C165.352 110.642 164.803 110.914 164.243 111.159Z" fill="#FDBD00"/>
</g>
</g>
</g>
<mask id="mask28_115_14509" style="mask-type:luminance" maskUnits="userSpaceOnUse" x="171" y="100" width="4" height="3">
<path d="M171.349 100.408H174.08V102.256H171.349V100.408Z" fill="white"/>
</mask>
<g mask="url(#mask28_115_14509)">
<mask id="mask29_115_14509" style="mask-type:luminance" maskUnits="userSpaceOnUse" x="139" y="84" width="40" height="35">
<path d="M145.717 84.9695L178.829 91.0549L172.597 118.669L139.485 112.584L145.717 84.9695Z" fill="white"/>
</mask>
<g mask="url(#mask29_115_14509)">
<mask id="mask30_115_14509" style="mask-type:luminance" maskUnits="userSpaceOnUse" x="139" y="84" width="40" height="35">
<path d="M145.717 84.9695L178.829 91.0549L172.597 118.669L139.485 112.584L145.717 84.9695Z" fill="white"/>
</mask>
<g mask="url(#mask30_115_14509)">
<path d="M173.931 100.48L171.536 101.679C172.005 100.964 172.675 100.61 173.931 100.48Z" fill="#FDBD00"/>
</g>
</g>
</g>
<path d="M59.9585 151.327C58.3718 151.327 56.9958 151.048 55.8305 150.49C54.6625 149.932 53.7611 149.142 53.1211 148.122C52.4811 147.102 52.1611 145.916 52.1611 144.561C52.1611 143.663 52.3451 142.816 52.7158 142.02C53.0838 141.226 53.6118 140.523 54.2945 139.912C54.9771 139.303 55.7985 138.824 56.7585 138.478C57.7185 138.127 58.7771 137.948 59.9371 137.948C60.3638 137.948 60.8571 137.982 61.4198 138.045C61.9878 138.11 62.5398 138.206 63.0731 138.333C63.6118 138.463 64.0651 138.639 64.4278 138.863L64.5025 141.327L64.2571 141.385C63.9798 140.737 63.5691 140.189 63.0305 139.739C62.4971 139.284 61.8918 138.93 61.2171 138.68C60.5398 138.43 59.8571 138.305 59.1691 138.305C58.2731 138.305 57.4571 138.487 56.7265 138.853C55.9931 139.219 55.4145 139.775 54.9878 140.518C54.5611 141.257 54.3398 142.193 54.3265 143.329C54.3105 144.21 54.4465 145.095 54.7318 145.985C55.0145 146.878 55.4278 147.694 55.9691 148.43C56.5158 149.169 57.1798 149.763 57.9638 150.211C58.7531 150.661 59.6438 150.884 60.6411 150.884C61.2865 150.884 61.8811 150.764 62.4225 150.519C62.9691 150.276 63.3745 149.922 63.6385 149.46V147.766C63.6385 147.034 63.5665 146.515 63.4251 146.207C63.2891 145.894 63.0011 145.677 62.5611 145.562V145.302H65.7718V148.738C65.2598 149.349 64.6571 149.843 63.9691 150.22C63.2785 150.601 62.5825 150.88 61.8785 151.058C61.1745 151.236 60.5345 151.327 59.9585 151.327Z" fill="#FEFAE0"/>
<path d="M76.266 151.144C75.7113 151.144 75.434 150.894 75.434 150.394V147.323C75.242 148.043 74.954 148.707 74.57 149.316C74.186 149.927 73.7087 150.413 73.1407 150.779C72.578 151.144 71.938 151.327 71.2207 151.327C70.458 151.327 69.7967 151.12 69.2367 150.702C68.682 150.278 68.4047 149.672 68.4047 148.882C68.4047 148.242 68.6207 147.718 69.0553 147.314C69.4873 146.909 70.0633 146.57 70.7833 146.293C71.5007 146.019 72.2873 145.774 73.1407 145.562L75.434 144.965C75.418 144.048 75.1593 143.394 74.6553 143.002C74.1567 142.612 73.5193 142.414 72.746 142.414C72.17 142.414 71.5967 142.537 71.0287 142.78C70.466 143.018 69.922 143.423 69.3967 143.993L69.194 143.829C69.77 143.182 70.4473 142.662 71.2313 142.27C72.0207 141.88 72.8847 141.683 73.8233 141.683C75.082 141.683 76.01 141.979 76.6073 142.568C77.2047 143.16 77.5033 144.029 77.5033 145.177V148.777C77.5033 149.445 77.5513 149.939 77.6527 150.259C77.7593 150.574 77.986 150.783 78.3353 150.884V151.144H76.266ZM70.3247 148.238C70.3247 148.849 70.5273 149.291 70.9327 149.566C71.3433 149.835 71.786 149.97 72.2553 149.97C72.7673 149.97 73.218 149.833 73.61 149.556C73.9993 149.275 74.33 148.911 74.602 148.469C74.8713 148.026 75.0767 147.564 75.2207 147.083C75.362 146.596 75.434 146.139 75.434 145.716V145.225L73.226 145.802C72.9753 145.867 72.6873 145.961 72.362 146.082C72.042 146.197 71.7247 146.349 71.4127 146.534C71.106 146.722 70.8473 146.955 70.634 147.237C70.426 147.513 70.3247 147.848 70.3247 148.238Z" fill="#FEFAE0"/>
<path d="M80.5189 151.144V150.884C80.8656 150.783 81.0896 150.574 81.1909 150.259C81.2976 149.939 81.3509 149.446 81.3509 148.777V138.882C81.3509 138.338 81.2763 137.977 81.1269 137.804C80.9829 137.626 80.7803 137.486 80.5189 137.39V137.13L83.2496 136.043L83.4629 136.197V148.777C83.4629 149.446 83.5109 149.939 83.6123 150.259C83.7189 150.574 83.9429 150.783 84.2843 150.884V151.144H80.5189Z" fill="#FEFAE0"/>
<path d="M86.7625 142.655C87.3011 142.419 87.7118 142.066 87.9891 141.596C88.2718 141.122 88.4371 140.641 88.4798 140.153C88.3945 140.167 88.3091 140.181 88.2238 140.201C88.1438 140.22 88.0585 140.23 87.9678 140.23C87.6318 140.23 87.3545 140.131 87.1358 139.931C86.9145 139.734 86.8051 139.484 86.8051 139.18C86.8051 138.822 86.9225 138.526 87.1571 138.295C87.3918 138.064 87.7011 137.948 88.0851 137.948C88.5251 137.948 88.8851 138.074 89.1625 138.324C89.4398 138.574 89.5785 138.974 89.5785 139.517C89.5785 140.018 89.4345 140.499 89.1518 140.961C88.8665 141.418 88.5171 141.813 88.1065 142.145C87.6931 142.472 87.2798 142.703 86.8691 142.838L86.7625 142.655Z" fill="#FEFAE0"/>
<path d="M96.3431 151.298C95.5804 151.298 94.8711 151.212 94.2098 151.038C93.5484 150.86 93.0151 150.651 92.6098 150.413L92.4071 147.968L92.6098 147.93C93.0578 148.829 93.6391 149.563 94.3591 150.134C95.0844 150.699 95.9084 150.985 96.8338 150.99C97.4791 151.005 97.9911 150.846 98.3698 150.519C98.7538 150.191 98.9458 149.816 98.9458 149.393C98.9458 148.796 98.6924 148.351 98.1884 148.055C97.6818 147.754 96.9831 147.477 96.0871 147.227C95.3671 147.03 94.7431 146.82 94.2098 146.601C93.6818 146.385 93.2764 146.106 92.9938 145.764C92.7164 145.417 92.5778 144.965 92.5778 144.407C92.5778 143.933 92.7164 143.488 92.9938 143.069C93.2764 142.653 93.7138 142.318 94.3058 142.068C94.9031 141.813 95.6711 141.683 96.6098 141.683C97.1991 141.683 97.7831 141.729 98.3591 141.818C98.9404 141.902 99.4044 142.01 99.7458 142.145L99.8524 144.205L99.6071 144.243C99.2578 143.584 98.7778 143.035 98.1671 142.597C97.5538 142.162 96.8684 141.943 96.1084 141.943C95.4604 141.943 94.9404 142.082 94.5511 142.357C94.1591 142.626 93.9644 142.961 93.9644 143.358C93.9644 143.885 94.2124 144.289 94.7111 144.57C95.2151 144.847 95.9298 145.129 96.8551 145.417C97.4098 145.579 97.9484 145.759 98.4764 145.956C99.0098 146.156 99.4498 146.435 99.7991 146.794C100.154 147.148 100.332 147.638 100.332 148.266C100.332 148.743 100.207 149.214 99.9591 149.681C99.7084 150.151 99.2924 150.538 98.7111 150.846C98.1351 151.147 97.3458 151.298 96.3431 151.298Z" fill="#FEFAE0"/>
<path d="M116.396 151.327C114.81 151.327 113.434 151.048 112.268 150.49C111.1 149.932 110.199 149.142 109.559 148.122C108.919 147.102 108.599 145.916 108.599 144.561C108.599 143.663 108.783 142.816 109.154 142.02C109.522 141.226 110.05 140.523 110.732 139.912C111.415 139.303 112.236 138.824 113.196 138.478C114.156 138.127 115.215 137.948 116.375 137.948C116.802 137.948 117.295 137.982 117.858 138.045C118.426 138.11 118.978 138.206 119.511 138.333C120.05 138.463 120.503 138.639 120.866 138.863L120.94 141.327L120.695 141.385C120.418 140.737 120.007 140.189 119.468 139.739C118.935 139.284 118.33 138.93 117.655 138.68C116.978 138.43 116.295 138.305 115.607 138.305C114.711 138.305 113.895 138.487 113.164 138.853C112.431 139.219 111.852 139.775 111.426 140.518C110.999 141.257 110.778 142.193 110.764 143.329C110.748 144.21 110.884 145.095 111.17 145.985C111.452 146.878 111.866 147.694 112.407 148.43C112.954 149.169 113.618 149.763 114.402 150.211C115.191 150.661 116.082 150.884 117.079 150.884C117.724 150.884 118.319 150.764 118.86 150.519C119.407 150.276 119.812 149.922 120.076 149.46V147.766C120.076 147.034 120.004 146.515 119.863 146.207C119.727 145.894 119.439 145.677 118.999 145.562V145.302H122.21V148.738C121.698 149.349 121.095 149.843 120.407 150.22C119.716 150.601 119.02 150.88 118.316 151.058C117.612 151.236 116.972 151.327 116.396 151.327Z" fill="#FEFAE0"/>
<path d="M128.565 151.327C127.477 151.327 126.688 151.029 126.197 150.432C125.706 149.835 125.461 148.974 125.461 147.843V144.484C125.461 143.933 125.389 143.569 125.248 143.396C125.104 143.223 124.901 143.088 124.64 142.992V142.732L127.37 141.644L127.573 141.798V147.602C127.573 148.599 127.696 149.344 127.946 149.845C128.194 150.341 128.717 150.586 129.514 150.586C129.984 150.586 130.466 150.466 130.965 150.22C131.461 149.977 131.968 149.624 132.48 149.162V144.484C132.48 143.933 132.405 143.569 132.256 143.396C132.112 143.223 131.909 143.088 131.648 142.992V142.732L134.378 141.644L134.581 141.798V148.777C134.581 149.446 134.634 149.939 134.741 150.259C134.848 150.574 135.072 150.783 135.413 150.884V151.144H133.301C132.752 151.144 132.48 150.894 132.48 150.394V149.556C131.882 150.071 131.242 150.495 130.56 150.827C129.877 151.159 129.21 151.327 128.565 151.327Z" fill="#FEFAE0"/>
<path d="M137.762 151.144V150.884C138.108 150.783 138.332 150.574 138.434 150.259C138.54 149.939 138.594 149.446 138.594 148.777V144.484C138.594 143.933 138.519 143.569 138.37 143.396C138.226 143.223 138.023 143.088 137.762 142.992V142.732L140.492 141.644L140.706 141.798V148.777C140.706 149.446 140.754 149.939 140.855 150.259C140.962 150.574 141.186 150.783 141.527 150.884V151.144H137.762ZM138.114 139.739C138.114 139.38 138.252 139.075 138.53 138.824C138.807 138.574 139.138 138.449 139.522 138.449C139.932 138.449 140.271 138.574 140.535 138.824C140.796 139.075 140.93 139.38 140.93 139.739C140.93 140.092 140.794 140.393 140.524 140.643C140.252 140.889 139.919 141.009 139.522 141.009C139.138 141.009 138.807 140.889 138.53 140.643C138.252 140.393 138.114 140.092 138.114 139.739Z" fill="#FEFAE0"/>
<path d="M148.35 151.366C147.481 151.351 146.718 151.132 146.057 150.702C145.396 150.266 144.876 149.705 144.5 149.017C144.129 148.331 143.945 147.602 143.945 146.832C143.945 145.877 144.174 145.013 144.638 144.243C145.1 143.468 145.761 142.852 146.622 142.395C147.481 141.933 148.513 141.702 149.716 141.702C150.156 141.702 150.558 141.748 150.921 141.837C151.289 141.921 151.628 142.029 151.934 142.164V138.882C151.934 138.338 151.86 137.977 151.71 137.804C151.566 137.626 151.364 137.486 151.102 137.39V137.13L153.833 136.043L154.036 136.197V148.777C154.036 149.446 154.084 149.939 154.185 150.259C154.292 150.574 154.518 150.783 154.868 150.884V151.144H152.756C152.206 151.144 151.934 150.894 151.934 150.394V149.614C151.67 149.891 151.358 150.167 150.996 150.442C150.638 150.711 150.241 150.937 149.801 151.115C149.358 151.294 148.876 151.378 148.35 151.366ZM145.972 145.321C145.972 145.771 146.02 146.274 146.121 146.832C146.228 147.391 146.414 147.93 146.686 148.449C146.956 148.964 147.329 149.393 147.806 149.739C148.281 150.081 148.889 150.249 149.63 150.249C150.084 150.249 150.505 150.151 150.889 149.951C151.278 149.754 151.628 149.508 151.934 149.219V145.1C151.934 144.638 151.796 144.181 151.518 143.723C151.241 143.261 150.87 142.876 150.409 142.568C149.945 142.256 149.428 142.097 148.852 142.097C148.089 142.097 147.502 142.265 147.092 142.597C146.678 142.932 146.388 143.346 146.217 143.839C146.052 144.327 145.972 144.821 145.972 145.321Z" fill="#FEFAE0"/>
<path d="M164.871 151.144C164.316 151.144 164.039 150.894 164.039 150.394V147.323C163.847 148.043 163.559 148.707 163.175 149.316C162.791 149.927 162.314 150.413 161.746 150.779C161.183 151.144 160.543 151.327 159.826 151.327C159.063 151.327 158.402 151.12 157.842 150.702C157.287 150.278 157.01 149.672 157.01 148.882C157.01 148.242 157.226 147.718 157.66 147.314C158.092 146.909 158.668 146.57 159.388 146.293C160.106 146.019 160.892 145.774 161.746 145.562L164.039 144.965C164.023 144.048 163.764 143.394 163.26 143.002C162.762 142.612 162.124 142.414 161.351 142.414C160.775 142.414 160.202 142.537 159.634 142.78C159.071 143.018 158.527 143.423 158.002 143.993L157.799 143.829C158.375 143.182 159.052 142.662 159.836 142.27C160.626 141.88 161.49 141.683 162.428 141.683C163.687 141.683 164.615 141.979 165.212 142.568C165.81 143.16 166.108 144.029 166.108 145.177V148.777C166.108 149.445 166.156 149.939 166.258 150.259C166.364 150.574 166.591 150.783 166.94 150.884V151.144H164.871ZM158.93 148.238C158.93 148.849 159.132 149.291 159.538 149.566C159.948 149.835 160.391 149.97 160.86 149.97C161.372 149.97 161.823 149.833 162.215 149.556C162.604 149.275 162.935 148.911 163.207 148.469C163.476 148.026 163.682 147.564 163.826 147.083C163.967 146.596 164.039 146.139 164.039 145.716V145.225L161.831 145.802C161.58 145.867 161.292 145.961 160.967 146.082C160.647 146.197 160.33 146.349 160.018 146.534C159.711 146.722 159.452 146.955 159.239 147.237C159.031 147.513 158.93 147.848 158.93 148.238Z" fill="#FEFAE0"/>
<path d="M169.081 151.144V150.884C169.428 150.783 169.652 150.574 169.753 150.259C169.86 149.939 169.913 149.446 169.913 148.777V144.484C169.913 143.933 169.839 143.569 169.689 143.396C169.545 143.223 169.343 143.088 169.081 142.992V142.732L171.812 141.644L172.025 141.798V143.358C172.585 142.941 173.233 142.559 173.967 142.212C174.697 141.861 175.463 141.683 176.26 141.683C177.212 141.683 177.98 141.924 178.564 142.405C179.153 142.881 179.449 143.666 179.449 144.763V148.777C179.449 149.446 179.497 149.939 179.599 150.259C179.705 150.574 179.929 150.783 180.271 150.884V151.144H176.505V150.884C176.852 150.783 177.076 150.574 177.177 150.259C177.284 149.939 177.337 149.446 177.337 148.777V145.1C177.337 144.253 177.137 143.596 176.74 143.127C176.348 142.66 175.769 142.424 175.001 142.424C174.516 142.424 174.041 142.53 173.572 142.742C173.103 142.953 172.585 143.266 172.025 143.675V148.777C172.025 149.446 172.073 149.939 172.175 150.259C172.281 150.574 172.505 150.783 172.847 150.884V151.144H169.081Z" fill="#FEFAE0"/>
<path d="M187.386 151.327C186.538 151.327 185.738 151.154 184.986 150.807C184.239 150.461 183.634 149.951 183.173 149.277C182.709 148.603 182.479 147.79 182.479 146.832C182.479 146.05 182.629 145.34 182.927 144.705C183.231 144.07 183.653 143.531 184.186 143.088C184.719 142.641 185.319 142.294 185.989 142.049C186.655 141.806 187.349 141.683 188.069 141.683C189.17 141.683 190.066 141.796 190.757 142.02C191.445 142.246 191.791 142.487 191.791 142.742C191.791 142.934 191.711 143.124 191.557 143.31C191.407 143.497 191.226 143.651 191.013 143.772C190.799 143.894 190.589 143.954 190.383 143.954C190.09 143.954 189.701 143.8 189.21 143.492C188.719 143.184 188.074 142.689 187.279 142.001C186.687 142.078 186.17 142.294 185.722 142.645C185.274 142.999 184.927 143.439 184.687 143.964C184.445 144.484 184.325 145.042 184.325 145.639C184.325 146.447 184.498 147.169 184.847 147.804C185.202 148.44 185.701 148.935 186.341 149.287C186.981 149.64 187.733 149.816 188.602 149.816C189.375 149.816 190.058 149.681 190.65 149.412C191.239 149.137 191.749 148.781 192.175 148.343L192.367 148.536C192.047 148.967 191.653 149.397 191.183 149.826C190.719 150.256 190.17 150.615 189.53 150.904C188.895 151.185 188.181 151.327 187.386 151.327Z" fill="#FEFAE0"/>
<path d="M199.459 151.327C198.875 151.327 198.296 151.233 197.72 151.048C197.15 150.863 196.624 150.584 196.142 150.211C195.664 149.84 195.28 149.373 194.99 148.815C194.696 148.252 194.552 147.59 194.552 146.832C194.552 146.038 194.704 145.321 195.011 144.686C195.323 144.051 195.742 143.512 196.27 143.069C196.795 142.621 197.379 142.277 198.019 142.039C198.659 141.803 199.315 141.683 199.992 141.683C200.931 141.683 201.715 141.854 202.35 142.193C202.982 142.528 203.459 142.951 203.779 143.464C204.104 143.971 204.27 144.498 204.27 145.042H196.44C196.424 145.138 196.414 145.239 196.408 145.34C196.4 145.437 196.398 145.538 196.398 145.639C196.398 146.447 196.571 147.169 196.92 147.804C197.275 148.44 197.774 148.935 198.414 149.287C199.054 149.64 199.806 149.816 200.675 149.816C201.448 149.816 202.131 149.681 202.723 149.412C203.312 149.137 203.822 148.781 204.248 148.343L204.44 148.536C204.12 148.967 203.726 149.397 203.256 149.826C202.792 150.256 202.243 150.615 201.603 150.904C200.968 151.185 200.254 151.327 199.459 151.327ZM196.451 144.782H202.19C202.104 144.27 201.926 143.805 201.656 143.387C201.384 142.97 201.054 142.641 200.664 142.395C200.272 142.145 199.835 142.02 199.352 142.02C198.776 142.008 198.286 142.133 197.88 142.395C197.48 142.653 197.166 142.992 196.931 143.415C196.696 143.839 196.536 144.296 196.451 144.782Z" fill="#FEFAE0"/>
</svg>
